<?xml version="1.0" encoding="iso-8859-1"?>
<!-- Generator: Adobe Illustrator 19.0.0, SVG Export Plug-In . SVG Version: 6.00 Build 0)  -->
<svg version="1.1" id="Layer_1" xmlns="http://www.w3.org/2000/svg" xmlns:xlink="http://www.w3.org/1999/xlink" x="0px" y="0px"
	 viewBox="0 0 511.984 511.984" style="enable-background:new 0 0 511.984 511.984;" xml:space="preserve">
<polygon style="fill:#FF8080;" points="351.045,256.253 287.671,256.253 287.671,192.879 224.297,192.879 224.297,256.253 
	160.923,256.253 160.923,319.627 224.297,319.627 224.297,383.001 287.671,383.001 287.671,319.627 351.045,319.627 "/>
<g>
	<polygon style="fill:#4D4D4D;" points="480.265,201.925 480.281,201.941 480.36,201.957 	"/>
	<path style="fill:#4D4D4D;" d="M480.281,201.941c-21.674-7.383-43.681-13.53-65.877-18.68v-55.959
		c-0.016-22.72-15.97-42.825-38.943-46.929c-39.102-6.829-78.996-10.441-119.492-10.441c-40.544,0-80.422,3.771-119.555,10.679
		c-22.926,4.135-38.848,24.209-38.864,46.913v55.674c-22.276,5.181-44.33,11.36-65.973,18.775l-0.127,0.048
		C11.693,209.039-0.016,227.624,0,246.858c0,6.147,1.204,13.926,3.739,19.915l62.439,147.915h0.016
		c7.621,15.844,25.698,27.489,43.871,27.362c4.848,0,9.744-1.458,14.513-2.884l0.269-0.459
		c41.463-13.229,86.3-20.074,131.121-20.074c44.853,0,89.674,6.575,131.121,19.789l0.254,0.032c4.785,1.442,9.68,2.123,14.529,2.107
		c18.188,0.127,36.25-10.378,43.887-28.867h0.016L508.198,265.3l0.032-0.063c2.551-6.052,3.755-12.39,3.755-18.584
		C512,227.133,500.022,208.611,480.281,201.941z M479.03,252.958l-62.392,146.331l-0.095,0.222
		c-2.472,5.941-7.843,9.237-14.655,9.364l-5.418-0.808v0.016c-44.726-14.228-92.605-21.294-140.485-21.31
		c-47.863,0-95.743,7.066-140.485,21.31v-0.016l-5.434,0.808c-6.829-0.127-12.184-3.422-14.655-9.364l-0.095-0.238L32.891,252.878
		l-1.204-6.021c0.016-6.591,4.056-12.817,10.251-14.94c44.093-15.083,89.88-25.318,136.365-30.752
		c8.698-1.014,14.909-8.888,13.895-17.57c-1.014-8.698-8.888-14.909-17.57-13.895l0,0c-15.21,1.774-30.325,4.23-45.392,7.003V127.54
		c-0.032-7.795,5.609-14.56,12.691-15.717c37.454-6.607,75.479-10.203,114.058-10.203c38.627,0,76.667,3.438,114.042,9.966
		c7.082,1.141,12.722,7.922,12.707,15.717v49.432c-14.94-2.757-29.944-5.181-44.996-6.955c-8.698-1.03-16.572,5.197-17.586,13.879
		c-1.03,8.698,5.181,16.572,13.879,17.586c46.105,5.434,91.798,15.622,136.112,30.721l0.095,0.032
		c5.862,1.87,10.061,7.953,10.061,14.671L479.03,252.958z"/>
</g>
<g>
</g>
<g>
</g>
<g>
</g>
<g>
</g>
<g>
</g>
<g>
</g>
<g>
</g>
<g>
</g>
<g>
</g>
<g>
</g>
<g>
</g>
<g>
</g>
<g>
</g>
<g>
</g>
<g>
</g>
</svg>
